<svg width="1440" height="900" viewBox="0 0 1440 900" fill="none" xmlns="http://www.w3.org/2000/svg">
<g clip-path="url(#clip0_2429_8552)">
<path d="M1222.71 651.12L1221.3 643.384C1220.25 636.703 1214.98 631.429 1208.29 630.374L1200.56 628.967L1208.29 627.561C1214.98 626.506 1220.25 621.231 1221.3 614.55L1222.71 606.814L1224.12 614.55C1225.17 621.231 1230.45 626.506 1237.13 627.561L1244.86 628.967L1237.13 630.374C1230.45 631.429 1225.17 636.703 1224.12 643.384L1222.71 651.12Z" fill="white"/>
<path d="M766.379 804.016C772.005 804.016 776.928 799.444 776.928 793.467C776.928 787.84 772.356 782.917 766.379 782.917C760.401 782.917 755.83 787.489 755.83 793.467C755.83 799.444 760.401 804.016 766.379 804.016Z" stroke="white" stroke-width="0.894437" stroke-miterlimit="10" stroke-linejoin="round"/>
<path d="M826.907 269.079C832.534 269.079 837.457 264.507 837.457 258.53C837.457 252.903 832.885 247.98 826.907 247.98C821.281 247.98 816.358 252.552 816.358 258.53C816.358 264.507 820.93 269.079 826.907 269.079Z" stroke="white" stroke-width="0.894437" stroke-miterlimit="10" stroke-linejoin="round"/>
<path d="M1273.7 766.015L1277.22 761.092L1273.7 756.169L1278.62 759.685L1283.55 756.169L1280.03 761.092L1283.55 766.015L1278.62 762.498L1273.7 766.015Z" fill="white"/>
<path d="M972.871 567.085L976.387 562.162L972.871 557.24L977.793 560.756L982.716 557.24L979.2 562.162L982.716 567.085L977.793 563.569L972.871 567.085Z" fill="white"/>
<path d="M1041.1 243.735L1044.62 238.813L1041.1 233.89L1046.02 237.406L1050.95 233.89L1047.43 238.813L1050.95 243.735L1046.02 240.219L1041.1 243.735Z" fill="white"/>
<path d="M1050.65 456.554L1056.61 455.56L1057.61 449.592L1058.6 455.56L1064.57 456.554L1058.6 457.549L1057.61 463.516L1056.61 457.549L1050.65 456.554Z" fill="white"/>
<path d="M779.735 523.429L783.252 518.506L779.735 513.583L784.658 517.1L789.581 513.583L786.065 518.506L789.581 523.429L784.658 519.913L779.735 523.429Z" fill="white"/>
<path d="M816.673 622.967L815.267 614.528L806.828 613.121L815.267 611.715L816.673 603.627L818.08 611.715L826.168 613.121L818.08 614.528L816.673 622.967Z" fill="#F78400" stroke="#F78400" stroke-width="0.894437" stroke-miterlimit="10" stroke-linejoin="round"/>
<path d="M1052.27 790.824L1051.62 787.221C1051.12 784.11 1048.67 781.654 1045.56 781.163L1041.96 780.508L1045.56 779.853C1048.67 779.361 1051.12 776.905 1051.62 773.794L1052.27 770.192L1052.93 773.794C1053.42 776.905 1055.87 779.361 1058.98 779.853L1062.59 780.508L1058.98 781.163C1055.87 781.654 1053.42 784.11 1052.93 787.221L1052.27 790.824Z" fill="white" stroke="black" stroke-width="0.894437" stroke-miterlimit="10" stroke-linejoin="round"/>
<path d="M1045.86 668.55C1051.49 668.55 1056.41 663.979 1056.41 658.001C1056.41 652.375 1051.84 647.452 1045.86 647.452C1040.24 647.452 1035.32 652.023 1035.32 658.001C1035.32 663.627 1040.24 668.55 1045.86 668.55Z" stroke="white" stroke-width="0.894437" stroke-miterlimit="10" stroke-linejoin="round"/>
<path d="M1032.48 890.142C1035.29 890.142 1037.75 887.68 1037.75 884.867C1037.75 882.054 1035.29 879.593 1032.48 879.593C1029.67 879.593 1027.2 882.054 1027.2 884.867C1027.56 888.032 1029.67 890.142 1032.48 890.142Z" stroke="#F8BC20" stroke-width="0.894437" stroke-miterlimit="10" stroke-linejoin="round"/>
<path d="M1379.46 698.101C1384.38 698.101 1387.9 694.233 1387.9 689.662C1387.9 684.739 1384.03 681.222 1379.46 681.222C1374.54 681.222 1371.02 685.09 1371.02 689.662C1371.02 694.233 1374.89 698.101 1379.46 698.101Z" stroke="white" stroke-width="0.894437" stroke-miterlimit="10" stroke-linejoin="round"/>
<path d="M862.046 564.255C864.507 564.255 866.265 562.497 866.265 560.036C866.265 557.574 864.507 555.816 862.046 555.816C859.584 555.816 857.826 557.574 857.826 560.036C857.826 562.497 859.936 564.255 862.046 564.255Z" stroke="white" stroke-width="0.894437" stroke-miterlimit="10" stroke-linejoin="round"/>
<path d="M1188.6 434.774C1191.06 434.774 1192.82 433.016 1192.82 430.555C1192.82 428.093 1191.06 426.335 1188.6 426.335C1186.14 426.335 1184.38 428.093 1184.38 430.555C1184.03 432.665 1186.14 434.774 1188.6 434.774Z" stroke="#F8BC20" stroke-width="0.894437" stroke-miterlimit="10" stroke-linejoin="round"/>
<path d="M1384.15 533.589L1390.42 523.925L1384.15 514.261L1393.29 521.052L1402.43 514.261L1396.16 523.925L1402.43 533.589L1393.29 526.798L1384.15 533.589Z" fill="white"/>
<path d="M1393.29 542.992L1390.68 526.798L1375.27 523.925L1390.68 521.051L1393.29 504.857L1395.9 521.051L1411.31 523.925L1395.9 526.798L1393.29 542.992Z" fill="white" stroke="#F78400" stroke-width="0.894437" stroke-miterlimit="10" stroke-linejoin="round"/>
<path d="M1362.46 355.997C1367.38 355.997 1370.9 352.129 1370.9 347.557C1370.9 342.634 1367.03 339.118 1362.46 339.118C1357.54 339.118 1354.02 342.986 1354.02 347.557C1354.02 352.129 1357.89 355.997 1362.46 355.997Z" stroke="white" stroke-width="0.894437" stroke-miterlimit="10" stroke-linejoin="round"/>
<path d="M1176.4 285.606L1175.53 280.851C1174.88 276.744 1171.64 273.502 1167.54 272.854L1162.78 271.989L1167.54 271.125C1171.64 270.476 1174.88 267.234 1175.53 263.127L1176.4 258.372L1177.26 263.127C1177.91 267.234 1181.15 270.476 1185.26 271.125L1190.01 271.989L1185.26 272.854C1181.15 273.502 1177.91 276.744 1177.26 280.851L1176.4 285.606Z" fill="white" stroke="black" stroke-width="0.894437" stroke-miterlimit="10" stroke-linejoin="round"/>
<path d="M1142.66 727.475C1142.66 749.033 1142.66 775.015 1142.66 807.19C1142.66 818.693 1143.38 831.966 1143.14 846.927C1142.66 873.875 1150.94 891.732 1149.01 925.999C1121.5 925.999 1004.62 925.999 1004.62 925.999C1002.77 907.981 994.007 902.672 984.837 864.383C976.23 828.748 979.286 794.642 976.391 776.221" fill="#FFC664"/>
<path d="M1142.66 727.475C1142.66 749.033 1142.66 775.015 1142.66 807.19C1142.66 818.693 1143.38 831.966 1143.14 846.928C1142.66 873.875 1150.94 891.732 1149.01 925.999C1121.5 925.999 1004.62 925.999 1004.62 925.999C1002.77 907.981 994.007 902.672 984.837 864.383C976.23 828.748 979.286 794.642 976.391 776.221" stroke="black" stroke-width="0.894437" stroke-miterlimit="10"/>
<path d="M962.438 389.954C946.028 389.954 932.675 403.307 932.675 419.716C932.675 442.641 955.842 465.727 961.312 470.795C961.955 471.358 962.92 471.358 963.564 470.795C969.034 465.727 992.2 442.802 992.2 419.716C992.2 403.226 978.847 389.954 962.438 389.954ZM962.438 434.597C953.992 434.597 947.154 427.76 947.154 419.314C947.154 410.868 953.992 404.03 962.438 404.03C970.884 404.03 977.721 410.868 977.721 419.314C977.721 427.76 970.884 434.597 962.438 434.597Z" fill="black" stroke="black" stroke-width="0.894437" stroke-miterlimit="10"/>
<path d="M958.611 389.954C942.201 389.954 928.848 403.307 928.848 419.716C928.848 442.641 952.015 465.727 957.485 470.795C958.128 471.358 959.093 471.358 959.737 470.795C965.207 465.727 988.373 442.802 988.373 419.716C988.293 403.226 975.02 389.954 958.611 389.954ZM958.611 434.597C950.165 434.597 943.327 427.76 943.327 419.314C943.327 410.868 950.165 404.03 958.611 404.03C967.057 404.03 973.894 410.868 973.894 419.314C973.814 427.76 966.976 434.597 958.611 434.597Z" fill="#FBE62E" stroke="black" stroke-width="0.894437" stroke-miterlimit="10"/>
<path d="M1280.89 430.574C1267.46 430.574 1256.52 441.514 1256.52 454.947C1256.52 473.69 1275.51 492.593 1279.93 496.776C1280.41 497.258 1281.22 497.258 1281.78 496.776C1286.2 492.673 1305.19 473.851 1305.19 454.947C1305.27 441.434 1294.41 430.574 1280.89 430.574ZM1280.89 467.094C1273.98 467.094 1268.43 461.543 1268.43 454.626C1268.43 447.708 1273.98 442.157 1280.89 442.157C1287.81 442.157 1293.36 447.708 1293.36 454.626C1293.44 461.543 1287.81 467.094 1280.89 467.094Z" fill="black" stroke="black" stroke-width="0.894437" stroke-miterlimit="10"/>
<path d="M1278.11 430.574C1264.68 430.574 1253.74 441.514 1253.74 454.948C1253.74 473.69 1272.72 492.593 1277.15 496.776C1277.63 497.259 1278.44 497.259 1279 496.776C1283.42 492.674 1302.41 473.851 1302.41 454.948C1302.49 441.434 1291.63 430.574 1278.11 430.574ZM1278.11 467.094C1271.2 467.094 1265.65 461.544 1265.65 454.626C1265.65 447.708 1271.2 442.158 1278.11 442.158C1285.03 442.158 1290.58 447.708 1290.58 454.626C1290.66 461.544 1285.03 467.094 1278.11 467.094Z" fill="#A041FF" stroke="black" stroke-width="0.894437" stroke-miterlimit="10"/>
<path d="M1350.99 323.383C1350.99 321.009 1349.41 318.635 1346.25 316.26C1333.27 306.763 1294.64 298.057 1237.98 291.093" stroke="black" stroke-width="0.894437" stroke-miterlimit="10"/>
<path d="M1121.1 554.532C1206 554.532 1274.82 485.709 1274.82 400.812C1274.82 315.915 1206 247.093 1121.1 247.093C1036.2 247.093 967.382 315.915 967.382 400.812C967.382 485.709 1036.2 554.532 1121.1 554.532Z" fill="#519AF4" stroke="black" stroke-width="0.894437" stroke-miterlimit="10"/>
<path d="M1120.94 554.532C1205.84 554.532 1274.66 485.709 1274.66 400.812C1274.66 315.915 1205.84 247.093 1120.94 247.093C1036.05 247.093 967.224 315.915 967.224 400.812C967.224 485.709 1036.05 554.532 1120.94 554.532Z" stroke="black" stroke-width="0.894437" stroke-miterlimit="10"/>
<path d="M1120.93 560.187C1209.02 560.187 1280.44 488.771 1280.44 400.675C1280.44 312.58 1209.02 241.164 1120.93 241.164C1032.83 241.164 961.417 312.58 961.417 400.675C961.417 488.771 1032.83 560.187 1120.93 560.187Z" fill="#9BCDFB" stroke="black" stroke-width="0.894437" stroke-miterlimit="10"/>
<path d="M1175.48 477.147C1125.29 451.969 1066.73 446.982 1030.77 496.05C1023.93 505.381 1019.03 513.425 1015.81 520.343C1042.19 543.59 1076.38 558.23 1113.95 559.919C1124.4 561.045 1129.15 560.16 1136.55 559.356C1165.02 556.621 1191.33 546.405 1213.45 530.719C1205.97 509.001 1189.88 484.467 1175.48 477.147Z" fill="#2FD395" stroke="black" stroke-width="0.894437" stroke-miterlimit="10"/>
<path d="M1207.01 266.155C1174.27 275.647 1147.89 297.044 1139.2 335.414C1118.85 425.184 1179.82 389.791 1199.69 399.122C1205.24 401.696 1207.01 417.059 1218.03 415.451C1258.58 409.579 1223.5 334.529 1257.85 348.686C1266.78 352.386 1273.7 375.633 1280.45 392.043C1277.64 339.194 1249.08 293.102 1207.01 266.155Z" fill="#2FD395" stroke="black" stroke-width="0.894437" stroke-miterlimit="10"/>
<path d="M1038.17 417.783C1043.56 414.887 1056.91 422.77 1062.22 413.037C1082.01 377.161 1001.01 359.866 1033.1 340.963C1049.75 331.15 1124.96 375.552 1095.12 332.517C1081.37 312.729 1032.3 335.493 1059.49 282.564C1066.65 268.729 1060.13 261.409 1047.74 258.915C996.583 285.46 961.592 338.952 961.592 400.649C961.592 416.174 963.844 431.136 967.947 445.293C1012.03 483.823 1020.8 426.953 1038.17 417.783Z" fill="#2FD395" stroke="black" stroke-width="0.894437" stroke-miterlimit="10"/>
<path d="M1284.79 377.565C1337.08 382.392 1370.14 389.47 1370.14 397.434C1370.14 411.993 1259.3 423.738 1122.63 423.738C1090.53 423.738 1059.89 423.094 1031.73 421.888" stroke="black" stroke-width="0.894437" stroke-miterlimit="10"/>
<path d="M1321.07 334.825C1285.39 336.367 1246.21 337.293 1205.19 337.293C1037.58 337.293 901.749 330.536 901.749 305.108C901.749 291.226 938.934 285.914 1005.87 284.852" stroke="black" stroke-width="0.894437" stroke-miterlimit="10" stroke-linecap="round"/>
<path d="M1245.73 481.011C1217.81 482.217 1187.17 482.941 1155.07 482.941C1023.96 482.941 917.696 471.68 917.696 457.764C917.696 453.179 929.36 448.835 949.791 445.054" stroke="black" stroke-width="0.894437" stroke-miterlimit="10"/>
<path d="M1016.65 318.12C1000.24 318.12 986.89 331.473 986.89 347.882C986.89 370.807 1010.06 393.894 1015.53 398.961C1016.17 399.524 1017.14 399.524 1017.78 398.961C1023.25 393.894 1046.42 370.968 1046.42 347.882C1046.33 331.392 1033.06 318.12 1016.65 318.12ZM1016.65 362.763C1008.21 362.763 1001.37 355.926 1001.37 347.48C1001.37 339.034 1008.21 332.197 1016.65 332.197C1025.1 332.197 1031.94 339.034 1031.94 347.48C1031.86 355.926 1025.02 362.763 1016.65 362.763Z" fill="black" stroke="black" stroke-width="0.894437" stroke-miterlimit="10"/>
<path d="M1012.75 318.12C996.336 318.12 982.983 331.473 982.983 347.882C982.983 370.807 1006.15 393.894 1011.62 398.961C1012.26 399.524 1013.23 399.524 1013.87 398.961C1019.34 393.894 1042.51 370.968 1042.51 347.882C1042.51 331.392 1029.16 318.12 1012.75 318.12ZM1012.75 362.763C1004.3 362.763 997.462 355.926 997.462 347.48C997.462 339.034 1004.3 332.197 1012.75 332.197C1021.19 332.197 1028.03 339.034 1028.03 347.48C1028.03 355.926 1021.19 362.763 1012.75 362.763Z" fill="#A041FF" stroke="black" stroke-width="0.894437" stroke-miterlimit="10"/>
<path d="M1116.48 442.158C1100.07 442.158 1086.72 455.511 1086.72 471.921C1086.72 494.846 1109.88 517.932 1115.35 522.999C1116 523.563 1116.96 523.563 1117.61 522.999C1123.08 517.932 1146.24 495.007 1146.24 471.921C1146.24 455.43 1132.89 442.158 1116.48 442.158ZM1116.48 486.802C1108.03 486.802 1101.2 479.964 1101.2 471.518C1101.2 463.072 1108.03 456.235 1116.48 456.235C1124.93 456.235 1131.76 463.072 1131.76 471.518C1131.68 479.964 1124.85 486.802 1116.48 486.802Z" fill="black" stroke="black" stroke-width="0.894437" stroke-miterlimit="10"/>
<path d="M1112.57 442.158C1096.16 442.158 1082.81 455.511 1082.81 471.921C1082.81 494.846 1105.98 517.932 1111.45 522.999C1112.09 523.563 1113.05 523.563 1113.7 522.999C1119.17 517.932 1142.33 495.007 1142.33 471.921C1142.33 455.43 1129.06 442.158 1112.57 442.158ZM1112.57 486.802C1104.13 486.802 1097.29 479.964 1097.29 471.518C1097.29 463.072 1104.13 456.235 1112.57 456.235C1121.02 456.235 1127.86 463.072 1127.86 471.518C1127.86 479.964 1121.02 486.802 1112.57 486.802Z" fill="white" stroke="black" stroke-width="0.894437" stroke-miterlimit="10"/>
<path d="M1205.61 330.588C1189.2 330.588 1175.84 343.941 1175.84 360.351C1175.84 383.276 1199.01 406.362 1204.48 411.43C1205.12 411.993 1206.09 411.993 1206.73 411.43C1212.2 406.362 1235.37 383.437 1235.37 360.351C1235.37 343.941 1222.01 330.588 1205.61 330.588ZM1205.61 375.232C1197.16 375.232 1190.32 368.395 1190.32 359.949C1190.32 351.503 1197.16 344.665 1205.61 344.665C1214.05 344.665 1220.89 351.503 1220.89 359.949C1220.89 368.395 1214.05 375.232 1205.61 375.232Z" fill="black" stroke="black" stroke-width="0.894437" stroke-miterlimit="10"/>
<path d="M1201.78 330.588C1185.37 330.588 1172.02 343.941 1172.02 360.351C1172.02 383.276 1195.18 406.362 1200.65 411.43C1201.3 411.993 1202.26 411.993 1202.91 411.43C1208.38 406.362 1231.54 383.437 1231.54 360.351C1231.46 343.941 1218.19 330.588 1201.78 330.588ZM1201.78 375.232C1193.33 375.232 1186.5 368.395 1186.5 359.949C1186.5 351.503 1193.33 344.665 1201.78 344.665C1210.23 344.665 1217.06 351.503 1217.06 359.949C1216.98 368.395 1210.14 375.232 1201.78 375.232Z" fill="#FB5D96" stroke="black" stroke-width="0.894437" stroke-miterlimit="10"/>
<path d="M1115.43 218.293C1099.02 218.293 1085.67 231.646 1085.67 248.056C1085.67 270.981 1108.84 294.067 1114.31 299.135C1114.95 299.698 1115.92 299.698 1116.56 299.135C1122.03 294.067 1145.2 271.142 1145.2 248.056C1145.2 231.646 1131.84 218.293 1115.43 218.293ZM1115.43 262.937C1106.99 262.937 1100.15 256.1 1100.15 247.654C1100.15 239.208 1106.99 232.37 1115.43 232.37C1123.88 232.37 1130.72 239.208 1130.72 247.654C1130.64 256.1 1123.8 262.937 1115.43 262.937Z" fill="black" stroke="black" stroke-width="0.894437" stroke-miterlimit="10"/>
<path d="M1111.53 218.293C1095.12 218.293 1081.76 231.646 1081.76 248.056C1081.76 270.981 1104.93 294.067 1110.4 299.135C1111.04 299.698 1112.01 299.698 1112.65 299.135C1118.12 294.067 1141.29 271.142 1141.29 248.056C1141.29 231.646 1128.02 218.293 1111.53 218.293ZM1111.53 262.937C1103.08 262.937 1096.24 256.1 1096.24 247.654C1096.24 239.208 1103.08 232.37 1111.53 232.37C1119.97 232.37 1126.81 239.208 1126.81 247.654C1126.81 256.1 1119.97 262.937 1111.53 262.937Z" fill="#FBE62E" stroke="black" stroke-width="0.894437" stroke-miterlimit="10"/>
<path d="M1141.29 782.175H1099.7C1099.14 782.175 1098.66 781.692 1098.66 781.129V584.053C1098.66 571.987 1108.47 562.173 1120.54 562.173C1132.6 562.173 1142.42 571.987 1142.42 584.053V781.129C1142.34 781.692 1141.85 782.175 1141.29 782.175Z" fill="#FFC664" stroke="black" stroke-width="0.894437" stroke-miterlimit="10"/>
<path d="M1113.86 782.175C1115.47 778.474 1116.11 774.211 1115.39 769.948L1106.78 715.169C1105.9 709.377 1102.84 704.47 1098.58 701.172V780.968C1098.58 781.611 1099.14 782.175 1099.78 782.175H1113.86Z" fill="black"/>
<path d="M1089.65 800.275C1077.5 802.205 1066.08 793.92 1064.15 781.773L1055.54 726.994C1053.61 714.848 1061.89 703.426 1074.04 701.495C1086.19 699.565 1097.61 707.85 1099.54 719.996L1108.15 774.775C1110.08 786.922 1101.79 798.344 1089.65 800.275Z" fill="#FFC664" stroke="black" stroke-width="0.894437" stroke-miterlimit="10"/>
<path d="M1092.3 804.215L1089.81 804.697C1083.37 805.984 1077.02 801.802 1075.73 795.367L1073.96 786.759C1072.67 780.324 1076.86 773.97 1083.29 772.683L1085.79 772.2C1092.22 770.913 1098.58 775.096 1099.86 781.531L1101.63 790.138C1103 796.573 1098.82 802.928 1092.3 804.215Z" fill="#FCDE90" stroke="black" stroke-width="0.894437" stroke-miterlimit="10"/>
<path d="M1101.79 794.078C1106.7 789.171 1109.36 782.092 1108.15 774.772L1102.6 739.379C1099.46 740.023 1096.41 741.149 1093.51 742.999C1081.52 750.721 1077.98 766.729 1085.71 778.794L1099.22 799.87C1100.67 798.261 1101.47 796.25 1101.79 794.078Z" fill="black"/>
<path d="M1149.01 926C1150.22 911.923 1168.32 871.06 1171.53 836.149C1172.9 821.348 1171.53 807.593 1165.1 797.377C1152.71 777.669 1134.13 749.274 1134.13 749.274C1126.41 737.289 1110.4 733.75 1098.33 741.472C1086.35 749.194 1082.81 765.201 1090.53 777.267L1111.61 810.087C1112.65 811.695 1112.97 813.626 1112.49 815.476L1102.03 855.052" fill="#FFC664"/>
<path d="M1149.01 926C1150.22 911.923 1168.32 871.06 1171.53 836.149C1172.9 821.348 1171.53 807.593 1165.1 797.377C1152.71 777.669 1134.13 749.274 1134.13 749.274C1126.41 737.289 1110.4 733.75 1098.33 741.472C1086.35 749.194 1082.81 765.201 1090.53 777.267L1111.61 810.087C1112.65 811.695 1112.97 813.626 1112.49 815.476L1102.03 855.052" stroke="black" stroke-width="0.894437" stroke-miterlimit="10" stroke-linecap="round"/>
<path d="M877.712 689.54C872.659 684.423 864.718 684.423 859.665 689.54L857.981 691.245L856.297 689.54C851.244 684.423 843.303 684.423 838.25 689.54C833.197 694.656 833.197 702.696 838.25 707.813L839.935 709.518L857.981 727.792L876.028 709.518L877.712 707.813C882.765 702.696 882.765 694.412 877.712 689.54Z" fill="#2C71F0" stroke="white" stroke-width="0.894437" stroke-miterlimit="10"/>
<path d="M830.362 700.556C823.125 701.75 818.783 703.9 818.783 706.05C818.541 710.589 836.151 714.888 857.862 715.366C879.573 715.844 897.182 712.499 897.182 707.961C897.182 705.333 891.875 702.945 883.432 701.273" stroke="#F78400" stroke-width="0.894437" stroke-miterlimit="10" stroke-linecap="round"/>
<path d="M1045.49 812.019C1033.34 813.95 1021.92 805.665 1019.99 793.518L1013.23 750.805C1011.3 738.659 1019.59 727.236 1031.73 725.306C1043.88 723.375 1055.3 731.661 1057.23 743.807L1063.99 786.52C1066 798.747 1057.63 810.089 1045.49 812.019Z" fill="#FFC664" stroke="black" stroke-width="0.894437" stroke-miterlimit="10"/>
<path d="M1004.38 826.015C993.522 827.704 983.306 820.303 981.617 809.444L976.388 776.142C974.699 765.283 982.099 755.067 992.959 753.378C1003.82 751.689 1014.03 759.089 1015.72 769.948L1020.95 803.17C1022.64 814.11 1015.24 824.245 1004.38 826.015Z" fill="#FFC664" stroke="black" stroke-width="0.894437" stroke-miterlimit="10"/>
<path d="M1127.62 756.917C1121.5 762.307 1112.09 761.744 1106.7 755.63L1102.12 750.402C1096.73 744.288 1097.29 734.877 1103.4 729.487C1109.52 724.098 1118.93 724.661 1124.32 730.774L1128.9 736.003C1134.37 742.197 1133.73 751.528 1127.62 756.917Z" fill="#FCDE90" stroke="black" stroke-width="0.894437" stroke-miterlimit="10"/>
<path d="M1006.8 830.6L1004.7 831.002C998.751 832.208 992.96 828.347 991.753 822.395L990.064 814.11C988.857 808.157 992.719 802.365 998.671 801.159L1000.76 800.757C1006.71 799.55 1012.51 803.411 1013.71 809.364L1015.4 817.649C1016.61 823.601 1012.75 829.393 1006.8 830.6Z" fill="#FCDE90" stroke="black" stroke-width="0.894437" stroke-miterlimit="10"/>
<path d="M1049.59 817.005L1047.09 817.487C1040.66 818.775 1034.3 814.592 1033.02 808.157L1031.25 799.549C1029.96 793.114 1034.14 786.76 1040.58 785.473L1043.07 784.99C1049.51 783.703 1055.86 787.886 1057.15 794.321L1058.92 802.928C1060.21 809.363 1056.02 815.718 1049.59 817.005Z" fill="#FCDE90" stroke="black" stroke-width="0.894437" stroke-miterlimit="10"/>
<path d="M1020.95 803.25L1015.72 770.029C1014.84 764.157 1011.38 759.33 1006.71 756.354L1012.83 795.206C1013.71 800.917 1016.77 805.824 1020.95 809.203C1021.19 807.192 1021.19 805.181 1020.95 803.25Z" fill="black"/>
<path d="M1064.07 786.6L1057.31 743.887C1056.43 738.176 1053.37 733.269 1049.19 729.971L1057.71 784.187C1058.44 788.772 1060.53 792.874 1063.5 796.011C1064.31 792.955 1064.55 789.818 1064.07 786.6Z" fill="black"/>
</g>
<defs>
<clipPath id="clip0_2429_8552">
<rect width="1440" height="900" fill="white"/>
</clipPath>
</defs>
</svg>
